<?xml version="1.0" standalone="no"?><!DOCTYPE svg PUBLIC "-//W3C//DTD SVG 1.1//EN" "http://www.w3.org/Graphics/SVG/1.1/DTD/svg11.dtd"><svg t="1739372933402" class="icon" viewBox="0 0 1024 1024" version="1.1" xmlns="http://www.w3.org/2000/svg" p-id="7089" xmlns:xlink="http://www.w3.org/1999/xlink" width="200" height="200"><path d="M588.791757 51.213619a51.199283 51.199283 0 0 1-24.370859 43.59619l-95.998656 59.083972c11.315042-0.204797 22.732482-0.281596 34.252321-0.281596C785.448204 153.612185 1023.985664 207.038637 1023.985664 588.806093s-229.244791 435.193907-511.992832 435.193907S0 970.573548 0 588.806093C0 360.380491 78.718898 249.508443 202.544364 197.285174l308.219685-189.693344A51.199283 51.199283 0 0 1 588.791757 51.213619z" fill="#1296db" p-id="7090" data-spm-anchor-id="a313x.search_index.0.i1.1bfe3a81LP39ZT" class="selected"></path><path d="M638.711058 715.524319Q691.190323 663.045053 691.190323 588.806093q0-74.238961-52.479265-126.718226Q586.231793 409.608601 511.992832 409.608601q-74.238961 0-126.718226 52.479266Q332.795341 514.567132 332.795341 588.806093q0 74.238961 52.479265 126.718226Q437.753871 768.003584 511.992832 768.003584q74.238961 0 126.718226-52.479265z m-72.421386-181.015066Q588.791757 556.985738 588.791757 588.806093q0 31.820355-22.502085 54.29684Q543.813187 665.605018 511.992832 665.605018q-31.820355 0-54.29684-22.502085Q435.193907 620.626447 435.193907 588.806093q0-31.820355 22.502085-54.29684Q480.172478 512.007168 511.992832 512.007168q31.820355 0 54.29684 22.502085z" fill="#FFFFFF" p-id="7091"></path></svg>